<svg width="152" height="17" viewBox="0 0 152 17" fill="none" xmlns="http://www.w3.org/2000/svg">
<path id="Vector" d="M143.888 16.1868C139.858 16.1868 136.596 12.6077 136.596 8.21501C136.596 3.82236 139.87 0.243164 143.888 0.243164C147.906 0.243164 151.18 3.82236 151.18 8.21501C151.18 12.6077 147.906 16.1868 143.888 16.1868ZM143.888 4.31043C141.916 4.31043 140.317 6.05936 140.317 8.21501C140.317 10.3707 141.916 12.1195 143.888 12.1195C145.86 12.1195 147.459 10.3707 147.459 8.21501C147.459 6.05936 145.86 4.31043 143.888 4.31043ZM109.923 16.1868C105.905 16.1868 102.631 12.6077 102.631 8.21501C102.631 3.82236 105.905 0.243164 109.923 0.243164C113.94 0.243164 117.214 3.82236 117.214 8.21501C117.214 12.6077 113.94 16.1868 109.923 16.1868ZM109.923 4.31043C107.951 4.31043 106.351 6.05936 106.351 8.21501C106.351 10.3707 107.951 12.1195 109.923 12.1195C111.894 12.1195 113.494 10.3707 113.494 8.21501C113.494 6.05936 111.894 4.31043 109.923 4.31043ZM75.9573 16.1868C71.927 16.1868 68.6657 12.6077 68.6657 8.21501C68.6657 3.82236 71.9394 0.243164 75.9573 0.243164C79.9751 0.243164 83.2488 3.82236 83.2488 8.21501C83.2488 12.6077 79.9751 16.1868 75.9573 16.1868ZM75.9573 4.31043C73.9855 4.31043 72.3859 6.05936 72.3859 8.21501C72.3859 10.3707 73.9855 12.1195 75.9573 12.1195C77.929 12.1195 79.5286 10.3707 79.5286 8.21501C79.5286 6.05936 77.929 4.31043 75.9573 4.31043ZM41.9919 16.1868C37.9616 16.1868 34.7003 12.6077 34.7003 8.21501C34.7003 3.82236 37.974 0.243164 41.9919 0.243164C46.0097 0.243164 49.2834 3.82236 49.2834 8.21501C49.2834 12.6077 46.0097 16.1868 41.9919 16.1868ZM41.9919 4.31043C40.0201 4.31043 38.4205 6.05936 38.4205 8.21501C38.4205 10.3707 40.0201 12.1195 41.9919 12.1195C43.9636 12.1195 45.5632 10.3707 45.5632 8.21501C45.5632 6.05936 43.9636 4.31043 41.9919 4.31043ZM8.02645 16.1868C4.00864 16.1868 0.734863 12.6077 0.734863 8.21501C0.734863 3.82236 4.00864 0.243164 8.02645 0.243164C12.0443 0.243164 15.318 3.82236 15.318 8.21501C15.318 12.6077 12.0443 16.1868 8.02645 16.1868ZM8.02645 4.31043C6.05475 4.31043 4.45506 6.05936 4.45506 8.21501C4.45506 10.3707 6.05475 12.1195 8.02645 12.1195C9.99816 12.1195 11.5978 10.3707 11.5978 8.21501C11.5978 6.05936 9.99816 4.31043 8.02645 4.31043Z" fill="white"/>
</svg>
