<svg width="576" height="85" viewBox="0 0 576 85" fill="none" xmlns="http://www.w3.org/2000/svg">
<path d="M569.901 58.1681V31.4328L572.273 29.809V10.9222L576 8.35116V0H0V8.35116L3.75548 10.9222V29.809L6.09912 31.4328V58.1681L10.5323 55.1524V34.4485L14.4289 37.1356V74.8317L0 84.7294V85H576V84.7294L561.571 74.8317V37.1356L565.496 34.4485V55.1524L569.901 58.1681Z" fill="#1A1B28"/>
<path d="M34.985 19.3315L17.8735 9.66577V25.8075L28.547 33.134V41.8525H34.985V19.3315Z" fill="#605553"/>
<path d="M34.9848 41.8525H28.5469V56.8537H34.9848V41.8525Z" fill="#DCD3C2"/>
<path d="M34.9848 66.1135H28.5469V75.3539H34.9848V66.1135Z" fill="#403A3F"/>
<path d="M547.453 33.134L558.154 25.8075V9.66577L541.015 19.3315V41.8525H547.453V33.134Z" fill="#605553"/>
<path d="M547.453 41.8525H541.015V56.8537H547.453V41.8525Z" fill="#DCD3C2"/>
<path d="M547.453 66.1135H541.015V75.3539H547.453V66.1135Z" fill="#403A3F"/>
</svg>
